<svg width="200" height="200" viewBox="0 0 200 200" fill="none" xmlns="http://www.w3.org/2000/svg">
  <circle cx="100" cy="100" r="100" fill="#84cc16"/>
  <rect x="40" y="80" width="45" height="80" rx="6" fill="white"/>
  <rect x="90" y="60" width="30" height="100" rx="6" fill="white"/>
  <rect x="125" y="70" width="40" height="90" rx="6" fill="white"/>
  <rect x="48" y="92" width="10" height="12" rx="2" fill="#84cc16" opacity="0.5"/>
  <rect x="65" y="92" width="10" height="12" rx="2" fill="#84cc16" opacity="0.5"/>
  <rect x="48" y="110" width="10" height="12" rx="2" fill="#84cc16" opacity="0.5"/>
  <rect x="65" y="110" width="10" height="12" rx="2" fill="#84cc16" opacity="0.5"/>
  <rect x="98" y="72" width="14" height="14" rx="2" fill="#84cc16" opacity="0.5"/>
  <rect x="98" y="92" width="14" height="14" rx="2" fill="#84cc16" opacity="0.5"/>
  <rect x="98" y="112" width="14" height="14" rx="2" fill="#84cc16" opacity="0.5"/>
  <rect x="133" y="82" width="12" height="12" rx="2" fill="#84cc16" opacity="0.5"/>
  <rect x="150" y="82" width="12" height="12" rx="2" fill="#84cc16" opacity="0.5"/>
  <rect x="133" y="100" width="12" height="12" rx="2" fill="#84cc16" opacity="0.5"/>
  <rect x="150" y="100" width="12" height="12" rx="2" fill="#84cc16" opacity="0.5"/>
</svg>
