<svg width="200" height="200" viewBox="0 0 200 200" fill="none" xmlns="http://www.w3.org/2000/svg">
  <circle cx="100" cy="100" r="100" fill="#f59e0b"/>
  <rect x="60" y="55" width="80" height="105" rx="8" fill="white"/>
  <rect x="75" y="45" width="50" height="20" rx="4" fill="white"/>
  <rect x="72" y="70" width="16" height="16" rx="2" fill="#f59e0b" opacity="0.5"/>
  <rect x="92" y="70" width="16" height="16" rx="2" fill="#f59e0b" opacity="0.5"/>
  <rect x="112" y="70" width="16" height="16" rx="2" fill="#f59e0b" opacity="0.5"/>
  <rect x="72" y="92" width="16" height="16" rx="2" fill="#f59e0b" opacity="0.5"/>
  <rect x="92" y="92" width="16" height="16" rx="2" fill="#f59e0b" opacity="0.5"/>
  <rect x="112" y="92" width="16" height="16" rx="2" fill="#f59e0b" opacity="0.5"/>
  <rect x="72" y="114" width="16" height="16" rx="2" fill="#f59e0b" opacity="0.5"/>
  <rect x="92" y="114" width="16" height="16" rx="2" fill="#f59e0b" opacity="0.5"/>
  <rect x="112" y="114" width="16" height="16" rx="2" fill="#f59e0b" opacity="0.5"/>
  <rect x="88" y="138" width="24" height="22" rx="3" fill="#f59e0b"/>
</svg>
