<svg width="200" height="200" viewBox="0 0 200 200" fill="none" xmlns="http://www.w3.org/2000/svg">
  <circle cx="100" cy="100" r="100" fill="#ec4899"/>
  <rect x="55" y="65" width="35" height="95" rx="6" fill="white"/>
  <rect x="95" y="45" width="50" height="115" rx="6" fill="white"/>
  <rect x="62" y="78" width="10" height="14" rx="2" fill="#ec4899" opacity="0.5"/>
  <rect x="62" y="98" width="10" height="14" rx="2" fill="#ec4899" opacity="0.5"/>
  <rect x="62" y="118" width="10" height="14" rx="2" fill="#ec4899" opacity="0.5"/>
  <rect x="105" y="58" width="12" height="14" rx="2" fill="#ec4899" opacity="0.5"/>
  <rect x="123" y="58" width="12" height="14" rx="2" fill="#ec4899" opacity="0.5"/>
  <rect x="105" y="80" width="12" height="14" rx="2" fill="#ec4899" opacity="0.5"/>
  <rect x="123" y="80" width="12" height="14" rx="2" fill="#ec4899" opacity="0.5"/>
  <rect x="105" y="102" width="12" height="14" rx="2" fill="#ec4899" opacity="0.5"/>
  <rect x="123" y="102" width="12" height="14" rx="2" fill="#ec4899" opacity="0.5"/>
</svg>
